<?xml version="1.0" encoding="UTF-8" standalone="no"?>
<!-- Created with Inkscape (http://www.inkscape.org/) -->
<!-- http://www.tq-components.com/uploads/media/TQM8xx_brochure_Rev.400.pdf -->
<svg
   xmlns:svg="http://www.w3.org/2000/svg"
   xmlns="http://www.w3.org/2000/svg"
   version="1.0"
   width="250"
   height="250">
  <path
     d="M 20,3.34682e-07 C 8.962,3.34682e-07 0,8.958 0,20 L 0,230 C 0,241.038 8.962,249.998 20,250 L 250,250 L 250,20 C 250,8.96 241.04,-0.00199967 230,3.34682e-07 L 20,3.34682e-07 z"
     style="fill:#008ac2;fill-opacity:0.999585;fill-rule:evenodd;stroke:none;stroke-width:3;stroke-linecap:square;stroke-linejoin:miter;marker:none;marker-start:none;marker-mid:none;marker-end:none;stroke-miterlimit:4;stroke-dasharray:none;stroke-dashoffset:0;stroke-opacity:1;visibility:visible;display:inline;overflow:visible;enable-background:accumulate" />
  <path
     d="M 175.224,41.882 L 66.826,41.886 C 60.256,41.886 54.27,42.538 48.778,46.836 C 45.496,49.404 44.744,51.392 42.908,55.128 L 63.576,55.126 C 71.928,55.182 73.228,59.148 70.838,68.788 L 56.822,124.438 C 54.002,135.834 53.22,145.702 59.69,155.336 C 65.218,163.572 73.476,164.156 73.476,164.156 L 97.166,73.108 C 97.166,73.108 98.814,62.948 104.45,58.922 C 107.752,56.558 112.358,55.918 117.63,55.918 L 143.68,55.918 C 148.746,55.918 160.246,56.296 166.176,52.486 C 170.676,49.594 172.982,46.396 175.224,41.882 M 187.124,165.996 C 185.256,172.756 182.736,177.644 177.996,180.586 C 173.278,183.516 167.448,184.446 155.242,184.412 C 155.242,184.412 131.17,184.49 119.096,184.396 C 112.556,184.382 101.298,183.316 96.842,177.532 C 91.974,171.212 94.002,164.458 95.718,157.634 L 112.498,91.464 C 112.498,91.464 114.586,80.216 120.898,76.342 C 126.8,72.718 135.042,73.026 148.51,73.026 L 181.428,73 C 181.428,73 198.386,72.266 204.002,80.286 C 208.59,86.468 206.25,93.72 204.538,100.544 L 187.124,165.996 z M 122.138,169.956 C 123.68,172.926 127.782,174.652 132.342,174.652 C 132.342,174.652 139.962,174.992 144.74,174.654 C 148.732,174.372 150.93,174.348 153.658,172.926 C 156.128,171.634 159.014,169.478 160.84,163.186 L 178.342,97.012 C 179.688,91.866 180.2,88.784 178.336,85.934 C 176.02,82.394 171.502,81.578 166.79,81.578 C 166.79,81.578 160.554,81.532 156.566,81.582 C 151.528,81.646 148.142,82.318 145.47,83.848 C 142.896,85.326 140.508,88.108 139.16,93.284 L 121.996,160.854 C 121.996,160.854 120.3,166.416 122.138,169.956 M 135.61,202.332 C 139.23,205.436 142.872,208.058 155.896,208.098 L 207.09,207.994 C 207.09,207.994 203.734,201.168 199.968,198.326 C 194.99,194.566 189.698,194.244 184.254,194.244 L 130.84,194.256 C 130.84,194.256 131.974,199.206 135.61,202.332"
     style="fill:#ffffff;fill-opacity:1;fill-rule:evenodd;stroke:none" />
</svg>
