<?xml version='1.0' encoding='UTF-8'?>
<!DOCTYPE svg PUBLIC "-//W3C//DTD SVG 1.0//EN" "http://www.w3.org/TR/2001/REC-SVG-20010904/DTD/svg10.dtd">
<svg viewBox="0 0 448 280" xmlns="http://www.w3.org/2000/svg" xmlns:inkspace="http://www.inkscape.org/namespaces/inkscape" xmlns:xlink="http://www.w3.org/1999/xlink">
  <defs id="defs_block">
    <filter height="1.504" id="filter_blur" inkspace:collect="always" width="1.1575" x="-0.07875" y="-0.252">
      <feGaussianBlur id="feGaussianBlur3780" inkspace:collect="always" stdDeviation="4.2" />
    </filter>
  </defs>
  <title>blockdiag</title>
  <desc />
  <rect fill="rgb(255,255,255)" height="60" style="filter:url(#filter_blur)" width="144" x="56" y="30" />
  <rect fill="rgb(255,255,255)" height="140" style="filter:url(#filter_blur)" width="336" x="56" y="110" />
  <path d="M 75 46 L 187 46 A8,8 0 0 1 195 54 L 195 78 A8,8 0 0 1 187 86 L 75 86 A8,8 0 0 1 67 78 L 67 54 A8,8 0 0 1 75 46" fill="rgb(0,0,0)" stroke="rgb(0,0,0)" style="filter:url(#filter_blur);opacity:0.7;fill-opacity:1" />
  <path d="M 75 126 L 187 126 A8,8 0 0 1 195 134 L 195 158 A8,8 0 0 1 187 166 L 75 166 A8,8 0 0 1 67 158 L 67 134 A8,8 0 0 1 75 126" fill="rgb(0,0,0)" stroke="rgb(0,0,0)" style="filter:url(#filter_blur);opacity:0.7;fill-opacity:1" />
  <path d="M 267 126 L 379 126 A8,8 0 0 1 387 134 L 387 158 A8,8 0 0 1 379 166 L 267 166 A8,8 0 0 1 259 158 L 259 134 A8,8 0 0 1 267 126" fill="rgb(0,0,0)" stroke="rgb(0,0,0)" style="filter:url(#filter_blur);opacity:0.7;fill-opacity:1" />
  <path d="M 267 206 L 379 206 A8,8 0 0 1 387 214 L 387 238 A8,8 0 0 1 379 246 L 267 246 A8,8 0 0 1 259 238 L 259 214 A8,8 0 0 1 267 206" fill="rgb(0,0,0)" stroke="rgb(0,0,0)" style="filter:url(#filter_blur);opacity:0.7;fill-opacity:1" />
  <path d="M 72 40 L 184 40 A8,8 0 0 1 192 48 L 192 72 A8,8 0 0 1 184 80 L 72 80 A8,8 0 0 1 64 72 L 64 48 A8,8 0 0 1 72 40" fill="rgb(255,255,255)" stroke="rgb(255,0,0)" />
  <text fill="rgb(0,0,0)" font-family="sansserif" font-size="14" font-style="normal" font-weight="bold" x="74" y="67">meta-tqs-arm</text>
  <ellipse cx="64" cy="40" fill="pink" rx="12" ry="12" stroke="rgb(255,0,0)" />
  <text fill="rgb(0,0,0)" font-family="sansserif" font-size="14" font-style="normal" font-weight="bold" x="57" y="45">M</text>
  <path d="M 72 120 L 184 120 A8,8 0 0 1 192 128 L 192 152 A8,8 0 0 1 184 160 L 72 160 A8,8 0 0 1 64 152 L 64 128 A8,8 0 0 1 72 120" fill="rgb(255,255,255)" stroke="rgb(0,0,0)" />
  <text fill="rgb(0,0,0)" font-family="sansserif" font-size="12" font-style="normal" font-weight="normal" x="90" y="145">meta-fsl-arm</text>
  <ellipse cx="64" cy="120" fill="pink" rx="12" ry="12" stroke="rgb(0,0,0)" />
  <text fill="rgb(0,0,0)" font-family="sansserif" font-size="12" font-style="normal" font-weight="normal" x="56" y="125">DY</text>
  <path d="M 264 120 L 376 120 A8,8 0 0 1 384 128 L 384 152 A8,8 0 0 1 376 160 L 264 160 A8,8 0 0 1 256 152 L 256 128 A8,8 0 0 1 264 120" fill="rgb(255,255,255)" stroke="rgb(0,0,0)" />
  <text fill="rgb(0,0,0)" font-family="sansserif" font-size="12" font-style="normal" font-weight="normal" x="288" y="147">poky-meta</text>
  <ellipse cx="256" cy="120" fill="pink" rx="12" ry="12" stroke="rgb(0,0,0)" />
  <text fill="rgb(0,0,0)" font-family="sansserif" font-size="12" font-style="normal" font-weight="normal" x="248" y="125">DY</text>
  <path d="M 264 200 L 376 200 A8,8 0 0 1 384 208 L 384 232 A8,8 0 0 1 376 240 L 264 240 A8,8 0 0 1 256 232 L 256 208 A8,8 0 0 1 264 200" fill="rgb(255,255,255)" stroke="rgb(0,0,0)" />
  <text fill="rgb(0,0,0)" font-family="sansserif" font-size="12" font-style="normal" font-weight="normal" x="270" y="227">poky-meta-yocto</text>
  <ellipse cx="256" cy="200" fill="pink" rx="12" ry="12" stroke="rgb(0,0,0)" />
  <text fill="rgb(0,0,0)" font-family="sansserif" font-size="12" font-style="normal" font-weight="normal" x="248" y="205">DY</text>
  <path d="M 128 80 L 128 112" fill="none" stroke="rgb(0,0,0)" />
  <polygon fill="rgb(0,0,0)" points="128,119 124,112 132,112 128,119" stroke="rgb(0,0,0)" />
  <path d="M 192 140 L 224 140" fill="none" stroke="rgb(0,0,0)" />
  <path d="M 224 140 L 224 220" fill="none" stroke="rgb(0,0,0)" />
  <path d="M 224 220 L 248 220" fill="none" stroke="rgb(0,0,0)" />
  <polygon fill="rgb(0,0,0)" points="255,220 248,216 248,224 255,220" stroke="rgb(0,0,0)" />
  <path d="M 192 140 L 248 140" fill="none" stroke="rgb(0,0,0)" />
  <polygon fill="rgb(0,0,0)" points="255,140 248,136 248,144 255,140" stroke="rgb(0,0,0)" />
  <text fill="rgb(0,0,0)" font-family="sansserif" font-size="16" font-style="normal" font-weight="normal" x="108" y="36">PRI:6</text>
  <text fill="rgb(0,0,0)" font-family="sansserif" font-size="16" font-style="normal" font-weight="normal" x="204" y="116">PRI:5</text>
</svg>
