<?xml version="1.0" encoding="UTF-8" standalone="no"?>
<!-- Created with Inkscape (http://www.inkscape.org/) -->

<svg
   xmlns:dc="http://purl.org/dc/elements/1.1/"
   xmlns:cc="http://creativecommons.org/ns#"
   xmlns:rdf="http://www.w3.org/1999/02/22-rdf-syntax-ns#"
   xmlns:svg="http://www.w3.org/2000/svg"
   xmlns="http://www.w3.org/2000/svg"
   xmlns:xlink="http://www.w3.org/1999/xlink"
   version="1.1"
   width="800"
   height="800"
   viewBox="0 0 640.00003 640"
   id="svg3004"
   style="fill-rule:evenodd">
  <metadata
     id="metadata3054">
    <rdf:RDF>
      <cc:Work
         rdf:about="">
        <dc:format>image/svg+xml</dc:format>
        <dc:type
           rdf:resource="http://purl.org/dc/dcmitype/StillImage" />
        <dc:title></dc:title>
      </cc:Work>
    </rdf:RDF>
  </metadata>
  <defs
     id="defs3006">
    <linearGradient
       id="linearGradient5443">
      <stop
         id="stop5445"
         style="stop-color:#115f89;stop-opacity:1"
         offset="0" />
      <stop
         id="stop5451"
         style="stop-color:#235f89;stop-opacity:0.49803922"
         offset="0.5" />
      <stop
         id="stop5447"
         style="stop-color:#355f89;stop-opacity:0"
         offset="1" />
    </linearGradient>
    <linearGradient
       id="linearGradient5387">
      <stop
         id="stop5423"
         style="stop-color:#355f89;stop-opacity:0.05882353"
         offset="0" />
      <stop
         id="stop5391"
         style="stop-color:#355f89;stop-opacity:0"
         offset="1" />
    </linearGradient>
    <linearGradient
       id="linearGradient3889">
      <stop
         id="stop3891"
         style="stop-color:#355f89;stop-opacity:1"
         offset="0" />
      <stop
         id="stop3893"
         style="stop-color:#355f89;stop-opacity:0"
         offset="1" />
    </linearGradient>
    <marker
       markerUnits="strokeWidth"
       refX="0"
       refY="5"
       markerWidth="4"
       markerHeight="3"
       orient="auto"
       viewBox="0 0 10 10"
       id="ArrowEnd">
      <path
         d="M 0,0 10,5 0,10 z"
         id="path3009" />
    </marker>
    <marker
       markerUnits="strokeWidth"
       refX="10"
       refY="5"
       markerWidth="4"
       markerHeight="3"
       orient="auto"
       viewBox="0 0 10 10"
       id="ArrowStart">
      <path
         d="M 10,0 0,5 10,10 z"
         id="path3012" />
    </marker>
    <linearGradient
       x1="281.08597"
       y1="485.0546"
       x2="389.86096"
       y2="485.0546"
       id="linearGradient5409"
       xlink:href="#linearGradient5443"
       gradientUnits="userSpaceOnUse" />
    <linearGradient
       x1="281.08597"
       y1="485.0546"
       x2="389.86096"
       y2="485.0546"
       id="linearGradient5449"
       xlink:href="#linearGradient5443"
       gradientUnits="userSpaceOnUse" />
  </defs>
  <g
     transform="translate(18.018814,21.727496)"
     id="g3014">
    <g
       transform="matrix(1.5711013,0,0,2.0731533,10.290561,-663.50121)"
       id="g3029">
      <path
         d="m 272.85717,593.67903 c -14.21848,4.22762 -31.4068,-0.28159 -38.02231,-9.56283 -6.22129,-8.7481 -0.67958,-18.53621 12.0521,-22.35083 12.73918,-3.79209 28.9363,-0.48058 36.59558,7.81321 8.1286,8.84197 3.58935,19.83528 -10.62537,24.10045 z"
         id="path3016"
         style="fill:#ffcc00;stroke:none" />
      <path
         d="m 156.34602,618.27132 c -14.1997,-0.15018 -23.75502,-8.87575 -21.76511,-19.00552 1.8998,-9.60038 13.62901,-17.22587 26.55216,-17.49995 13.2085,-0.26282 23.64239,7.20122 23.02665,17.18832 -0.67207,10.55779 -13.27233,19.4373 -27.8137,19.31715 z"
         id="path3018"
         style="fill:#c87137;stroke:none" />
      <path
         d="m 55.588967,608.7573 c -9.18738,-3.67195 -9.881971,-13.32114 -2.140093,-21.43472 7.471551,-7.81697 20.44727,-11.68791 29.529523,-8.82694 9.420161,2.98862 11.582781,12.20603 4.250148,20.8077 -7.632997,8.93583 -22.076744,13.2498 -31.639578,9.45396 z"
         id="path3020"
         style="fill:#d45500;stroke:none" />
      <path
         d="m -1.866886,576.96003 c -3.3941116,-5.04236 1.71207405,-13.20475 11.1209721,-18.33722 9.2549619,-5.04236 19.7676969,-5.56799 23.7963269,-1.08882 4.186322,4.68568 -0.146427,13.10713 -10.017135,18.72394 -10.058435,5.71066 -21.3446067,5.98099 -24.900164,0.7021 z"
         id="path3022"
         style="fill:#916f6f;stroke:none" />
      <path
         d="m -17.947616,538.29569 c 0.826,-4.94474 8.4214515,-10.89195 17.0193671,-13.46381 8.5941611,-2.56436 15.4086659,-0.93488 15.2359569,3.82588 -0.195236,4.95601 -7.8432513,11.35751 -17.0869492,14.13212 -9.2436978,2.75209 -16.0131488,0.66456 -15.1683748,-4.49419 z"
         id="path3024"
         style="fill:#115f89;fill-opacity:1;stroke:none" />
      <path
         d="m -5.6477161,501.7752 c 3.3528116,-4.2464 11.4889178,-8.18867 18.3522321,-8.92456 6.953423,-0.74341 10.276199,2.02745 7.261296,6.33392 -3.123784,4.45289 -11.7179449,8.73308 -19.01678675,9.41641 -7.18995995,0.67581 -10.05843485,-2.44046 -6.59674135,-6.82577 z"
         id="path3026"
         style="fill:#916f6f;fill-opacity:1;stroke:none" />
      <path
         d="m 23.742888,470.6988 c 4.787049,-3.41664 12.558964,-5.73695 17.54125,-5.24135 5.091167,0.51437 5.504167,3.76581 0.735891,7.34765 -4.895931,3.66069 -13.159692,6.12742 -18.262123,5.45912 -4.989795,-0.67207 -4.907194,-4.07369 -0.01502,-7.56542 z"
         id="path3028"
         style="fill:#d45500;fill-opacity:1;stroke:none" />
      <path
         d="m 63.267018,445.70477 c 5.624313,-2.60941 12.645319,-3.6344 15.821666,-2.29403 3.255194,1.38168 1.280301,4.75326 -4.561776,7.52036 -5.913413,2.80465 -13.272328,3.81462 -16.309758,2.27151 -2.951074,-1.50933 -0.634518,-4.85464 5.049868,-7.49784 z"
         id="path3030"
         style="fill:#c87137;fill-opacity:1;stroke:none" />
      <path
         d="m 109.21143,426.66546 c 6.1537,-1.83973 12.25109,-1.77966 13.65153,0.18397 1.43424,2.01619 -2.62443,5.26763 -9.10853,7.20498 -6.48411,1.93735 -12.65658,1.74586 -13.771684,-0.3717 -1.070047,-2.06125 3.067464,-5.18128 9.228684,-7.01725 z"
         id="path3032"
         style="fill:#ffcc00;fill-opacity:1;stroke:none" />
    </g>
    <g
       transform="matrix(3.7545483,0,0,3.7545483,-972.80434,-1317.1758)"
       id="g3034" />
    <text
       x="91.144417"
       y="490.89145"
       id="text3073"
       xml:space="preserve"
       style="font-size:84.10188293px;font-style:normal;font-weight:normal;line-height:125%;letter-spacing:0px;word-spacing:0px;fill:#000000;fill-opacity:1;stroke:none;font-family:Bitstream Vera Sans"><tspan
         x="91.144417"
         y="490.89145"
         id="tspan3075" /></text>
    <text
       x="143.28706"
       y="374.17792"
       transform="scale(0.81649657,1.2247449)"
       id="text3029"
       xml:space="preserve"
       style="font-size:88.28858948px;font-style:normal;font-variant:normal;font-weight:normal;font-stretch:normal;line-height:125%;letter-spacing:0px;word-spacing:0px;fill:#115f89;fill-opacity:1;stroke:none;font-family:DejaVu Serif;-inkscape-font-specification:DejaVu Serif"><tspan
         x="143.28706"
         y="374.17792"
         id="tspan3031"
         style="font-size:108.80000305px;font-style:oblique;font-variant:normal;font-weight:bold;font-stretch:normal;fill:#115f89;fill-opacity:1;font-family:DejaVu Sans;-inkscape-font-specification:DejaVu Sans Bold Oblique">Li-Pro.Net</tspan></text>
  </g>
  <g
     transform="translate(18.018814,21.727496)"
     id="g3050" />
</svg>
